<?xml version="1.0"?>
<svg xmlns="http://www.w3.org/2000/svg" xmlns:xlink="http://www.w3.org/1999/xlink" xmlns:svgjs="http://svgjs.com/svgjs" version="1.1" width="512" height="512" x="0" y="0" viewBox="0 0 512 512" style="enable-background:new 0 0 512 512" xml:space="preserve" class=""><g>
<g xmlns="http://www.w3.org/2000/svg">
	<g>
		<path d="M135,301c-24.813,0-45,20.187-45,45s20.187,45,45,45s45-20.187,45-45S159.813,301,135,301z M135,361    c-8.271,0-15-6.729-15-15s6.729-15,15-15s15,6.729,15,15S143.271,361,135,361z" fill="#ffffff" data-original="#000000" style="" class=""/>
	</g>
</g>
<g xmlns="http://www.w3.org/2000/svg">
	<g>
		<path d="M450,271v-30c0-36.436-32.329-64.321-67.921-59.462C371.634,163.028,351.868,151,330,151    c-21.868,0-41.634,12.028-52.079,30.538c-18.317-2.501-37.464,3.757-51.04,17.763c-5.697-4.885-11.843-9.256-18.374-13.048    L191.461,90H210V0H60v90h18.539l-17.046,96.252c-17.547,10.188-32.328,24.545-43.042,41.88C6.38,247.663,0,270.122,0,293.081V512    c19.732,0,430.097,0,450,0v-61h62V271H450z M88.455,206.043L114.318,60H90V30h90v30h-24.318l25.864,146.043    c8.468,4.234,27.641,12.455,42.718,34.957H45.737C60.464,219.02,78.789,210.876,88.455,206.043z M240,482H30v-31h210V482z     M240,421H30V293.081c0-7.563,0.9-14.961,2.609-22.081h204.782c1.709,7.12,2.609,14.518,2.609,22.081V421z M420,482H270V293.081    c0-7.441-0.681-14.827-1.998-22.081H300v45c0,24.813,20.187,45,45,45s45-20.187,45-45v-45h30C420,282.44,420,473.653,420,482z     M360,241v75c0,8.271-6.729,15-15,15s-15-6.729-15-15v-75h-71.533c-3.324-7.145-7.01-13.428-11.294-19.459    c7.927-9.271,21.278-13.426,33.97-8.329l15.661,6.289l4.408-16.291C304.75,190.133,316.588,181,330,181s25.25,9.133,28.788,22.209    l4.408,16.291c16.779-6.737,19.838-8.5,26.804-8.5c16.542,0,30,13.458,30,30H360z M482,421h-32V301h32V421z" fill="#ffffff" data-original="#000000" style="" class=""/>
	</g>
</g>
<g xmlns="http://www.w3.org/2000/svg">
</g>
<g xmlns="http://www.w3.org/2000/svg">
</g>
<g xmlns="http://www.w3.org/2000/svg">
</g>
<g xmlns="http://www.w3.org/2000/svg">
</g>
<g xmlns="http://www.w3.org/2000/svg">
</g>
<g xmlns="http://www.w3.org/2000/svg">
</g>
<g xmlns="http://www.w3.org/2000/svg">
</g>
<g xmlns="http://www.w3.org/2000/svg">
</g>
<g xmlns="http://www.w3.org/2000/svg">
</g>
<g xmlns="http://www.w3.org/2000/svg">
</g>
<g xmlns="http://www.w3.org/2000/svg">
</g>
<g xmlns="http://www.w3.org/2000/svg">
</g>
<g xmlns="http://www.w3.org/2000/svg">
</g>
<g xmlns="http://www.w3.org/2000/svg">
</g>
<g xmlns="http://www.w3.org/2000/svg">
</g>
</g></svg>
