<?xml version="1.0" encoding="iso-8859-1"?>
<!-- Generator: Adobe Illustrator 19.0.0, SVG Export Plug-In . SVG Version: 6.00 Build 0)  -->
<svg version="1.1" id="Layer_1" xmlns="http://www.w3.org/2000/svg" xmlns:xlink="http://www.w3.org/1999/xlink" x="0px" y="0px"
	 viewBox="0 0 512 512" style="enable-background:new 0 0 512 512;" xml:space="preserve">
<g>
	<g>
		<path d="M308.798,165.051l-10.736-93.462c5.62-5.381,9.131-12.948,9.131-21.326c0-6.376-2.113-12.559-5.866-17.61
			c3.042-3.432,4.906-7.929,4.906-12.865v-0.351C306.232,8.72,297.512,0,286.794,0h-61.589c-10.719,0-19.439,8.72-19.439,19.439
			v0.351c0,4.932,1.862,9.428,4.901,12.859c-3.752,5.027-5.861,11.166-5.861,17.616c0,8.377,3.51,15.944,9.131,21.326l-3.105,27.034
			c-0.48,4.171,2.514,7.943,6.686,8.422c0.295,0.033,7.883,0.607,8.422-6.687l2.431-21.161c1.93,0.398,26.276,2.603,55.257,0
			l10.463,91.089c0.261,2.272,1.531,4.306,3.457,5.539c21.885,13.998,34.951,37.717,34.951,63.447v33.271h-15.26v-28.358
			c0-14.256-11.598-25.853-25.853-25.853h-70.85c-14.256,0-25.853,11.598-25.853,25.853v28.358H179.5v-33.271
			c0-25.731,13.066-49.449,34.951-63.447c1.926-1.233,3.197-3.267,3.457-5.539l1.154-10.045c0.48-4.171-2.514-7.943-6.686-8.422
			c-4.183-0.478-7.943,2.514-8.422,6.687l-0.752,6.547c-24.434,17.017-38.909,44.494-38.909,74.22V473.98
			c0,20.965,17.055,38.02,38.02,38.02h107.376c20.965,0,38.02-17.055,38.02-38.02V239.27
			C347.707,209.545,333.232,182.067,308.798,165.051z M220.974,19.439c0-2.293,1.938-4.231,4.231-4.231h61.589
			c2.293,0,4.231,1.937,4.231,4.231v0.351c0,2.293-1.938,4.23-4.231,4.23h-61.589c-2.293,0-4.231-1.936-4.231-4.23V19.439z
			 M277.653,64.595h-43.309c-7.902,0-14.331-6.429-14.331-14.332c0-4.296,1.943-8.313,5.247-11.037h61.458
			c3.3,2.725,5.267,6.788,5.267,11.037C291.985,58.166,285.556,64.595,277.653,64.595z M220.536,233.539h70.85
			c5.87,0,10.646,4.775,10.646,10.646v28.358h-92.141v-28.358h0C209.891,238.314,214.666,233.539,220.536,233.539z M276.43,376.493
			h-40.862V287.75h40.862V376.493z M302.031,391.701v64.029c0,5.87-4.775,10.646-10.646,10.646h-70.85
			c-5.87,0-10.646-4.775-10.646-10.646v-64.029H302.031z M179.499,287.749h40.862v88.743h-40.862V287.749z M332.499,473.98
			c0,12.578-10.233,22.812-22.812,22.812H202.311c-12.579,0-22.812-10.234-22.812-22.812v-82.279h15.184v64.029
			c0,14.256,11.598,25.853,25.853,25.853h70.85c14.256,0,25.853-11.598,25.853-25.853v-64.029h15.26V473.98z M332.499,376.493
			h-40.862V287.75h40.862V376.493z"/>
	</g>
</g>
<g>
	<g>
		<path d="M216.496,115.942c-4.182-0.478-7.943,2.514-8.422,6.687l-1.112,9.679c-0.48,4.171,2.487,8.421,6.686,8.422
			c5.345,0,7.977-2.81,8.422-6.687l1.112-9.679C223.662,120.193,220.668,116.422,216.496,115.942z"/>
	</g>
</g>
<g>
	<g>
		<path d="M259.546,438.241c-1.419-1.419-3.377-2.231-5.384-2.231c-1.998,0-3.955,0.811-5.373,2.231
			c-1.419,1.409-2.23,3.376-2.23,5.373c0,2.007,0.811,3.964,2.23,5.384c1.419,1.409,3.375,2.22,5.373,2.22
			c2.007,0,3.964-0.812,5.384-2.22c1.409-1.419,2.22-3.376,2.22-5.384C261.766,441.617,260.956,439.66,259.546,438.241z"/>
	</g>
</g>
<g>
	<g>
		<path d="M289.417,425.905c-1.419-1.419-3.377-2.23-5.384-2.23c-1.998,0-3.955,0.811-5.373,2.23
			c-1.419,1.409-2.23,3.376-2.23,5.373c0,2.007,0.811,3.964,2.23,5.384c1.419,1.409,3.375,2.22,5.373,2.22
			c2.007,0,3.964-0.811,5.384-2.22c1.409-1.419,2.22-3.376,2.22-5.384C291.637,429.281,290.827,427.324,289.417,425.905z"/>
	</g>
</g>
<g>
	<g>
		<path d="M259.546,249.593c-1.419-1.419-3.377-2.23-5.384-2.23c-1.998,0-3.955,0.811-5.373,2.23
			c-1.419,1.409-2.23,3.376-2.23,5.373c0,2.007,0.811,3.964,2.23,5.384c1.419,1.409,3.375,2.22,5.373,2.22
			c2.007,0,3.964-0.811,5.384-2.22c1.409-1.419,2.22-3.376,2.22-5.384C261.766,252.97,260.956,251.013,259.546,249.593z"/>
	</g>
</g>
<g>
</g>
<g>
</g>
<g>
</g>
<g>
</g>
<g>
</g>
<g>
</g>
<g>
</g>
<g>
</g>
<g>
</g>
<g>
</g>
<g>
</g>
<g>
</g>
<g>
</g>
<g>
</g>
<g>
</g>
</svg>
