<svg xmlns="http://www.w3.org/2000/svg" height="512pt" version="1.1" viewBox="-128 0 512 512.00048" width="512pt">
<g id="surface1">
<path d="M 255.554688 127.777344 C 255.554688 57.320312 198.234375 0 127.777344 0 C 57.320312 0 0 57.320312 0 127.777344 C 0 191.589844 47.019531 244.625 108.234375 254.058594 L 108.234375 472.523438 C 108.234375 473.421875 108.398438 474.316406 108.714844 475.160156 L 120.738281 507.230469 C 123.125 513.589844 132.429688 513.589844 134.816406 507.230469 L 146.839844 475.160156 C 147.15625 474.316406 147.320312 473.421875 147.320312 472.523438 L 147.320312 254.058594 C 208.53125 244.625 255.554688 191.589844 255.554688 127.777344 Z M 132.285156 471.160156 L 127.777344 483.183594 L 123.265625 471.160156 L 123.265625 255.464844 C 124.765625 255.515625 126.265625 255.550781 127.777344 255.550781 C 129.285156 255.550781 130.789062 255.515625 132.285156 255.464844 Z M 127.777344 240.519531 C 65.609375 240.519531 15.03125 189.941406 15.03125 127.777344 C 15.03125 65.609375 65.609375 15.03125 127.777344 15.03125 C 189.941406 15.03125 240.519531 65.609375 240.519531 127.777344 C 240.519531 189.941406 189.941406 240.519531 127.777344 240.519531 Z M 127.777344 240.519531 " style=" stroke:none;fill-rule:nonzero;fill:rgb(0%,0%,0%);fill-opacity:1;" />
<path d="M 205.882812 87.878906 C 203.992188 84.183594 199.460938 82.722656 195.765625 84.613281 C 192.070312 86.503906 190.609375 91.03125 192.5 94.730469 C 196.621094 102.777344 199.148438 111.335938 200.054688 120.261719 L 182.890625 120.261719 C 179.210938 93.132812 155.894531 72.15625 127.777344 72.15625 C 115.144531 72.15625 103.492188 76.394531 94.144531 83.515625 L 93.003906 82.375 C 90.070312 79.441406 85.308594 79.441406 82.375 82.375 C 79.441406 85.308594 79.441406 90.070312 82.375 93.003906 L 83.515625 94.148438 C 77.835938 101.609375 73.980469 110.535156 72.664062 120.261719 L 55.503906 120.261719 C 59.28125 83.714844 90.25 55.121094 127.777344 55.121094 C 144.3125 55.121094 159.890625 60.53125 172.824219 70.765625 C 176.078125 73.34375 180.808594 72.792969 183.382812 69.539062 C 185.960938 66.28125 185.410156 61.554688 182.152344 58.980469 C 166.539062 46.621094 147.734375 40.085938 127.777344 40.085938 C 79.425781 40.085938 40.085938 79.421875 40.085938 127.777344 C 40.085938 131.929688 43.453125 135.292969 47.601562 135.292969 L 79.671875 135.292969 C 83.824219 135.292969 87.1875 131.929688 87.1875 127.777344 C 87.1875 119.296875 89.804688 111.417969 94.269531 104.902344 L 122.460938 133.089844 C 123.929688 134.558594 125.851562 135.292969 127.777344 135.292969 C 129.699219 135.292969 131.625 134.558594 133.09375 133.089844 C 136.027344 130.15625 136.027344 125.398438 133.09375 122.460938 L 104.902344 94.273438 C 111.417969 89.804688 119.296875 87.1875 127.777344 87.1875 C 150.15625 87.1875 168.363281 105.394531 168.363281 127.777344 C 168.363281 131.929688 171.730469 135.292969 175.878906 135.292969 L 207.949219 135.292969 C 212.101562 135.292969 215.464844 131.929688 215.464844 127.777344 C 215.464844 113.726562 212.242188 100.304688 205.882812 87.878906 Z M 205.882812 87.878906 " style=" stroke:none;fill-rule:nonzero;fill:rgb(0%,0%,0%);fill-opacity:1;" />
<path d="M 119.757812 152.328125 L 87.691406 152.328125 C 83.539062 152.328125 80.171875 155.695312 80.171875 159.84375 L 80.171875 207.949219 C 80.171875 212.101562 83.539062 215.464844 87.691406 215.464844 C 91.839844 215.464844 95.207031 212.101562 95.207031 207.949219 L 95.207031 191.398438 C 95.371094 191.40625 95.539062 191.414062 95.707031 191.414062 L 119.757812 191.414062 C 123.910156 191.414062 127.277344 188.050781 127.277344 183.898438 L 127.277344 159.84375 C 127.277344 155.695312 123.910156 152.328125 119.757812 152.328125 Z M 112.242188 176.382812 L 95.707031 176.382812 C 95.539062 176.382812 95.371094 176.386719 95.207031 176.398438 L 95.207031 167.363281 L 112.242188 167.363281 Z M 112.242188 176.382812 " style=" stroke:none;fill-rule:nonzero;fill:rgb(0%,0%,0%);fill-opacity:1;" />
<path d="M 175.878906 152.328125 C 171.730469 152.328125 168.363281 155.695312 168.363281 159.84375 L 168.363281 176.382812 L 151.328125 176.382812 L 151.328125 159.84375 C 151.328125 155.695312 147.964844 152.328125 143.8125 152.328125 C 139.660156 152.328125 136.296875 155.695312 136.296875 159.84375 L 136.296875 207.949219 C 136.296875 212.101562 139.660156 215.464844 143.8125 215.464844 C 147.964844 215.464844 151.328125 212.101562 151.328125 207.949219 L 151.328125 191.414062 L 168.363281 191.414062 L 168.363281 207.949219 C 168.363281 212.101562 171.730469 215.464844 175.878906 215.464844 C 180.03125 215.464844 183.398438 212.101562 183.398438 207.949219 L 183.398438 159.84375 C 183.398438 155.695312 180.03125 152.328125 175.878906 152.328125 Z M 175.878906 152.328125 " style=" stroke:none;fill-rule:nonzero;fill:rgb(0%,0%,0%);fill-opacity:1;" />
</g>
</svg>